<?xml version="1.0" encoding="UTF-8" standalone="no"?>
<!-- Created with Inkscape (http://www.inkscape.org/) -->
<svg xmlns:dc="http://purl.org/dc/elements/1.1/" xmlns:cc="http://creativecommons.org/ns#" xmlns:rdf="http://www.w3.org/1999/02/22-rdf-syntax-ns#" xmlns:svg="http://www.w3.org/2000/svg" xmlns="http://www.w3.org/2000/svg" xmlns:sodipodi="http://sodipodi.sourceforge.net/DTD/sodipodi-0.dtd" xmlns:inkscape="http://www.inkscape.org/namespaces/inkscape" width="550mm" height="341.07401mm" viewBox="0 0 549.99999 341.074" version="1.1" id="svg1597">
  <defs id="defs1591">
    <filter style="color-interpolation-filters:sRGB" id="filter1429">
      <feColorMatrix values="0.21 0.72 0.072 -1.56 0 0.21 0.72 0.072 -1.56 0 0.21 0.72 0.072 -1.56 0 0 0 0 1 0 " id="feColorMatrix1427"/>
    </filter>
    <filter style="color-interpolation-filters:sRGB" id="filter1449">
      <feColorMatrix values="0.21 0.72 0.072 -1.56 0 0.21 0.72 0.072 -1.56 0 0.21 0.72 0.072 -1.56 0 0 0 0 1 0 " id="feColorMatrix1447"/>
    </filter>
    <filter style="color-interpolation-filters:sRGB" id="filter1457">
      <feColorMatrix values="0.21 0.72 0.072 -1.56 0 0.21 0.72 0.072 -1.56 0 0.21 0.72 0.072 -1.56 0 0 0 0 1 0 " id="feColorMatrix1455"/>
    </filter>
  </defs>
  
  <metadata id="metadata1594">
    
  </metadata>
  <g id="layer4" transform="translate(290.00002,49.582575)" style="display:none">
    <rect style="color:#000000;clip-rule:nonzero;display:inline;overflow:visible;visibility:visible;opacity:1;isolation:auto;mix-blend-mode:normal;color-interpolation:sRGB;color-interpolation-filters:linearRGB;solid-color:#000000;solid-opacity:1;fill:#ff0000;fill-opacity:0.11499999;fill-rule:evenodd;stroke:#000000;stroke-width:1.00009298;stroke-linecap:butt;stroke-linejoin:miter;stroke-miterlimit:4;stroke-dasharray:none;stroke-dashoffset:0;stroke-opacity:1;color-rendering:auto;image-rendering:auto;shape-rendering:auto;text-rendering:auto;enable-background:accumulate" id="rect4233-3" width="128.99991" height="128.99992" x="130.50003" y="160.77377"/>
    <rect transform="translate(-24.627446,40.394822)" style="color:#000000;clip-rule:nonzero;display:inline;overflow:visible;visibility:visible;opacity:1;isolation:auto;mix-blend-mode:normal;color-interpolation:sRGB;color-interpolation-filters:linearRGB;solid-color:#000000;solid-opacity:1;fill:#ff0000;fill-opacity:0.11499999;fill-rule:evenodd;stroke:#000000;stroke-width:1.00000012;stroke-linecap:butt;stroke-linejoin:miter;stroke-miterlimit:4;stroke-dasharray:none;stroke-dashoffset:0;stroke-opacity:1;color-rendering:auto;image-rendering:auto;shape-rendering:auto;text-rendering:auto;enable-background:accumulate" id="rect4233-5-6" width="209.00002" height="209.00002" x="75.127434" y="-89.894829"/>
    <rect style="color:#000000;clip-rule:nonzero;display:inline;overflow:visible;visibility:visible;opacity:1;isolation:auto;mix-blend-mode:normal;color-interpolation:sRGB;color-interpolation-filters:linearRGB;solid-color:#000000;solid-opacity:1;fill:#ff0000;fill-opacity:0.11499999;fill-rule:evenodd;stroke:#000000;stroke-width:1.00000012;stroke-linecap:butt;stroke-linejoin:miter;stroke-miterlimit:4;stroke-dasharray:none;stroke-dashoffset:0;stroke-opacity:1;color-rendering:auto;image-rendering:auto;shape-rendering:auto;text-rendering:auto;enable-background:accumulate" id="rect4233-5" width="339.00003" height="339.00003" x="-264.87259" y="-89.894829" transform="translate(-24.627446,40.394822)"/>
    <a transform="matrix(1.704486,0,0,1.6699174,-199.16939,-195.26955)" style="display:inline" id="a4506">
      <path d="m 267.38886,214.91077 a 67.73333,73.848152 0 0 1 -21.42022,53.88774 67.73333,73.848152 0 0 1 -50.71265,19.80446" id="path4504" style="fill:#ff5f00;fill-opacity:0.11499999;stroke:#00ff00;stroke-width:1.77818537;stroke-linecap:square;stroke-linejoin:round;stroke-miterlimit:4;stroke-dasharray:none;stroke-opacity:1"/>
    </a>
    <path style="fill:#ff5f00;fill-opacity:0.11499999;fill-rule:evenodd;stroke:#00ff00;stroke-width:2.99656129;stroke-linecap:butt;stroke-linejoin:miter;stroke-miterlimit:4;stroke-dasharray:none;stroke-opacity:1" d="m 131.07492,289.28053 0.65316,-61.29471 0.24431,-66.20826 55.12577,0.28082 71.34405,-0.23859" id="path4511"/>
    <path style="display:inline;fill:#0000ff;fill-opacity:0.14942531;fill-rule:evenodd;stroke:#00ff00;stroke-width:5.23772001;stroke-linecap:butt;stroke-linejoin:miter;stroke-miterlimit:4;stroke-dasharray:none;stroke-opacity:1" d="m -285.3629,306.18492 c 2.8013,-23.71277 7.84362,-79.03561 10.6449,-91.73102 6.72311,-28.49694 16.24751,-55.74584 25.21162,-78.00259 10.64491,-25.08632 14.00644,-34.39567 24.65134,-50.545663 38.05001,-36.81722 43.4388,-44.864369 78.47082,-75.441382 14.73786,-12.3444022 20.19075,-19.6363517 43.42276,-30.707582 26.768414,-12.756506 45.107842,-17.434059 64.589947,-24.150343 34.0413734,-7.540181 29.7760301,-17.801593 86.922338,-18.841629 l 1.120514,370.044229 z" id="path4915"/>
            <path transform="translate(-24.627451,40.39482)" style="display:inline;fill:none;fill-rule:evenodd;stroke:#000000;stroke-width:0.5;stroke-linecap:butt;stroke-linejoin:miter;stroke-miterlimit:4;stroke-dasharray:none;stroke-opacity:1" d="m 38.785088,-69.957664 c -0.264131,88.106109 -0.142127,88.3885 -0.142127,88.3885" id="path4232"/>
  </g>
  <g id="layer5" transform="translate(2.4482234e-7,-0.41743096)" style="display:inline">
    <g id="g9113" transform="matrix(0.95301038,0,0,0.95301038,38.337619,46.068306)">
      <g transform="scale(0.97689163,1.023655)" style="font-style:normal;font-variant:normal;font-weight:bold;font-stretch:normal;font-size:39.67622757px;line-height:100%;font-family:Purisa;-inkscape-font-specification:'Purisa, Bold';text-align:start;letter-spacing:0px;word-spacing:0px;writing-mode:lr-tb;text-anchor:start;display:inline;fill:#000000;fill-opacity:1;stroke:#000000;stroke-width:0.93723375;stroke-linecap:butt;stroke-linejoin:miter;stroke-miterlimit:4;stroke-dasharray:none;stroke-opacity:1" id="text4415-6-4">
        <path d="m 86.984345,279.11096 q 0,0.99449 -0.700662,1.69515 -0.700663,0.70066 -1.695152,0.70066 -0.994489,0 -1.695151,-0.70066 -0.700663,-0.70066 -0.700663,-1.69515 l 0,-31.3716 q 0,-0.99449 0.700663,-1.69515 0.700662,-0.70067 1.695151,-0.70067 0.994489,0 1.695152,0.70067 0.700662,0.70066 0.700662,1.69515 l 0,31.3716 z" style="font-style:normal;font-variant:normal;font-weight:bold;font-stretch:normal;font-size:46.28893661px;line-height:100%;font-family:Comfortaa;-inkscape-font-specification:'Comfortaa, Bold';text-align:start;writing-mode:lr-tb;text-anchor:start;stroke:#000000;stroke-width:0.93723375;stroke-miterlimit:4;stroke-dasharray:none;stroke-opacity:1" id="path4226"/>
        <path d="m 96.251173,258.52052 q 3.006069,-2.32801 7.074437,-2.32801 2.37321,0 4.4978,0.92669 2.14719,0.92668 3.77453,2.53142 1.62735,1.58214 2.57664,3.75194 0.94928,2.14719 0.94928,4.58821 l 0,11.14279 q 0,0.99449 -0.70066,1.69515 -0.67806,0.67806 -1.64995,0.67806 -0.99449,0 -1.69515,-0.67806 -0.67806,-0.70066 -0.67806,-1.69515 l 0,-11.14279 q 0,-1.44653 -0.56505,-2.73485 -0.56505,-1.28831 -1.53694,-2.2376 -0.94928,-0.97188 -2.2376,-1.53693 -1.28832,-0.56506 -2.73484,-0.56506 -1.46914,0 -2.75745,0.56506 -1.265714,0.54244 -2.237601,1.51433 -0.971887,0.97189 -1.536937,2.2602 -0.542449,1.28832 -0.542449,2.73485 l 0,11.14279 q 0,0.99449 -0.700662,1.69515 -0.678061,0.67806 -1.649948,0.67806 -0.994488,0 -1.695151,-0.67806 -0.678061,-0.70066 -0.678061,-1.69515 l 0,-20.56784 q 0,-0.97188 0.678061,-1.67254 0.700663,-0.70067 1.695151,-0.70067 0.971887,0 1.649948,0.70067 0.700662,0.70066 0.700662,1.62734 z" style="font-style:normal;font-variant:normal;font-weight:bold;font-stretch:normal;font-size:46.28893661px;line-height:100%;font-family:Comfortaa;-inkscape-font-specification:'Comfortaa, Bold';text-align:start;writing-mode:lr-tb;text-anchor:start;stroke:#000000;stroke-width:0.93723375;stroke-miterlimit:4;stroke-dasharray:none;stroke-opacity:1" id="path4228"/>
        <path d="m 131.80415,250.08997 q -6.23816,0 -6.23816,6.21555 l 0,1.17531 4.54301,0 q 0.97189,0 1.64995,0.70066 0.70066,0.67806 0.70066,1.64995 0,0.99449 -0.70066,1.69515 -0.67806,0.67806 -1.64995,0.67806 l -4.54301,0 0,16.95151 q 0,0.47465 -0.18081,0.90409 -0.18082,0.42943 -0.49725,0.76846 -0.31642,0.31643 -0.74586,0.49725 -0.42944,0.18081 -0.92669,0.18081 -0.49724,0 -0.92668,-0.18081 -0.42944,-0.18082 -0.74586,-0.49725 -0.31643,-0.33903 -0.49725,-0.76846 -0.18082,-0.42944 -0.18082,-0.90409 l 0,-16.95151 -1.08489,0 q -1.01709,0 -1.69515,-0.67806 -0.65546,-0.67806 -0.65546,-1.69515 0,-1.01709 0.65546,-1.67255 0.67806,-0.67806 1.69515,-0.67806 l 1.08489,0 0,-1.17531 q 0,-10.93937 10.93938,-10.93937 0.97189,0 1.64995,0.70066 0.70066,0.67806 0.70066,1.64995 0,0.99448 -0.70066,1.69515 -0.67806,0.67806 -1.64995,0.67806 z" style="font-style:normal;font-variant:normal;font-weight:bold;font-stretch:normal;font-size:46.28893661px;line-height:100%;font-family:Comfortaa;-inkscape-font-specification:'Comfortaa, Bold';text-align:start;writing-mode:lr-tb;text-anchor:start;stroke:#000000;stroke-width:0.93723375;stroke-miterlimit:4;stroke-dasharray:none;stroke-opacity:1" id="path4230"/>
        <path d="m 161.16418,268.84964 q 0,5.28888 -3.70674,8.9504 -3.75193,3.70673 -8.9504,3.70673 -5.24366,0 -8.9504,-3.70673 -3.70673,-3.70673 -3.70673,-8.9504 0,-5.24366 3.70673,-8.9504 3.70674,-3.70673 8.9504,-3.70673 5.19847,0 8.9504,3.70673 1.85337,1.85337 2.75745,4.09097 0.92668,2.2376 0.94929,4.85943 z m -12.65714,-7.93331 q -1.67254,0 -3.11907,0.63286 -1.44653,0.63286 -2.50883,1.71775 -1.06229,1.0623 -1.69515,2.50883 -0.61025,1.44653 -0.61025,3.07387 0,1.62735 0.61025,3.07388 0.63286,1.44653 1.69515,2.53142 1.0623,1.0623 2.50883,1.69516 1.44653,0.63285 3.11907,0.63285 1.64995,0 3.09648,-0.63285 1.44653,-0.63286 2.50883,-1.71776 1.08489,-1.08489 1.69515,-2.50882 0.63285,-1.44653 0.63285,-3.07388 0,-1.62734 -0.63285,-3.05127 -0.61026,-1.44653 -1.69515,-2.53143 -1.0623,-1.08489 -2.50883,-1.71775 -1.44653,-0.63286 -3.09648,-0.63286 z" style="font-style:normal;font-variant:normal;font-weight:bold;font-stretch:normal;font-size:46.28893661px;line-height:100%;font-family:Comfortaa;-inkscape-font-specification:'Comfortaa, Bold';text-align:start;writing-mode:lr-tb;text-anchor:start;stroke:#000000;stroke-width:0.93723375;stroke-miterlimit:4;stroke-dasharray:none;stroke-opacity:1" id="path4233"/>
        <path d="m 169.41391,258.54312 0,0.45204 q 1.69515,-1.35612 3.68413,-2.07938 1.98898,-0.72327 4.24918,-0.72327 0.99449,0 2.12459,0.13561 1.1527,0.13562 2.10199,0.49725 0.97188,0.33903 1.60474,0.94928 0.63286,0.61026 0.63286,1.58215 0,0.49724 -0.20342,0.92668 -0.18082,0.42944 -0.49724,0.76847 -0.31643,0.31643 -0.74587,0.49724 -0.42944,0.18082 -0.92668,0.18082 -0.42944,0 -0.99449,-0.24862 -1.42393,-0.56506 -3.09648,-0.56506 -1.64995,0 -3.09648,0.63286 -1.44653,0.61026 -2.53142,1.69515 -1.0623,1.0623 -1.69515,2.50883 -0.61026,1.44653 -0.61026,3.09647 l 0,10.30652 q 0,0.97189 -0.70066,1.67255 -0.67806,0.67806 -1.64995,0.67806 -0.99449,0 -1.69515,-0.67806 -0.67806,-0.70066 -0.67806,-1.67255 l 0,-20.61304 q 0,-0.97188 0.67806,-1.64994 0.70066,-0.70067 1.69515,-0.70067 0.97189,0 1.64995,0.70067 0.70066,0.67806 0.70066,1.64994 z" style="font-style:normal;font-variant:normal;font-weight:bold;font-stretch:normal;font-size:46.28893661px;line-height:100%;font-family:Comfortaa;-inkscape-font-specification:'Comfortaa, Bold';text-align:start;writing-mode:lr-tb;text-anchor:start;stroke:#000000;stroke-width:0.93723375;stroke-miterlimit:4;stroke-dasharray:none;stroke-opacity:1" id="path4235"/>
        <path d="m 222.21223,279.13356 q 0,0.99449 -0.70066,1.69515 -0.67807,0.67806 -1.64995,0.67806 -0.99449,0 -1.67255,-0.67806 -0.67806,-0.70066 -0.67806,-1.69515 l 0,-12.86055 q 0,-1.08489 -0.42944,-2.05678 -0.40684,-0.97189 -1.1301,-1.69515 -0.72327,-0.74587 -1.71776,-1.17531 -0.97188,-0.42944 -2.10198,-0.42944 -1.1075,0 -2.07939,0.42944 -0.97189,0.42944 -1.71775,1.15271 -0.72327,0.72326 -1.15271,1.69515 -0.40683,0.97188 -0.40683,2.07938 l 0,12.86055 q 0,0.99449 -0.70066,1.69515 -0.67806,0.67806 -1.64995,0.67806 -0.99449,0 -1.69515,-0.67806 -0.67806,-0.70066 -0.67806,-1.69515 l 0,-12.86055 q 0,-1.1075 -0.42944,-2.07938 -0.42944,-0.97189 -1.15271,-1.69515 -0.72326,-0.72327 -1.69515,-1.15271 -0.97188,-0.42944 -2.07938,-0.42944 -1.1075,0 -2.07939,0.42944 -0.97189,0.40684 -1.71775,1.15271 -0.72327,0.72326 -1.1527,1.69515 -0.40684,0.97188 -0.40684,2.07938 l 0,12.86055 q 0,0.99449 -0.70066,1.69515 -0.67806,0.67806 -1.64995,0.67806 -0.99449,0 -1.69515,-0.67806 -0.67806,-0.70066 -0.67806,-1.69515 l 0,-20.59044 q 0,-0.97188 0.67806,-1.64994 0.70066,-0.70067 1.67255,-0.70067 0.79107,0 1.40132,0.45204 0.61026,0.42944 0.83628,1.15271 2.41841,-1.60475 5.49229,-1.60475 2.2602,0 4.24918,0.90408 1.98897,0.88148 3.48071,2.68964 3.14168,-3.59372 7.70729,-3.59372 2.05678,0 3.88754,0.81368 1.85337,0.79107 3.20949,2.16979 1.37872,1.35612 2.1698,3.20949 0.81367,1.83076 0.81367,3.88754 l 0,12.86055 z" style="font-style:normal;font-variant:normal;font-weight:bold;font-stretch:normal;font-size:46.28893661px;line-height:100%;font-family:Comfortaa;-inkscape-font-specification:'Comfortaa, Bold';text-align:start;writing-mode:lr-tb;text-anchor:start;stroke:#000000;stroke-width:0.93723375;stroke-miterlimit:4;stroke-dasharray:none;stroke-opacity:1" id="path4237"/>
        <path d="m 238.91512,260.91633 q -1.67255,0 -3.11908,0.63286 -1.44653,0.63286 -2.50882,1.71775 -1.0623,1.0623 -1.69515,2.50883 -0.61026,1.44653 -0.61026,3.07387 0,1.62735 0.61026,3.07388 0.63285,1.44653 1.69515,2.53142 1.06229,1.0623 2.50882,1.69516 1.44653,0.63285 3.11908,0.63285 1.64995,0 3.09648,-0.63285 1.44653,-0.63286 2.50882,-1.71776 1.0849,-1.08489 1.69515,-2.50882 0.63286,-1.44653 0.63286,-3.07388 0,-1.62734 -0.63286,-3.05127 -0.61025,-1.44653 -1.69515,-2.53143 -1.06229,-1.08489 -2.50882,-1.71775 -1.44653,-0.63286 -3.09648,-0.63286 z m 7.93331,18.23983 0,-0.45204 q -1.69515,1.35613 -3.68413,2.07939 -1.98898,0.72326 -4.24918,0.72326 -5.24367,0 -8.9504,-3.70673 -3.70673,-3.70673 -3.70673,-8.9504 0,-5.24366 3.70673,-8.9504 3.70673,-3.70673 8.9504,-3.70673 5.19847,0 8.9504,3.70673 3.70673,3.70674 3.70673,8.9504 l 0,10.30652 q 0,0.97189 -0.70066,1.67255 -0.67806,0.67806 -1.64995,0.67806 -0.99449,0 -1.69515,-0.67806 -0.67806,-0.70066 -0.67806,-1.67255 z" style="font-style:normal;font-variant:normal;font-weight:bold;font-stretch:normal;font-size:46.28893661px;line-height:100%;font-family:Comfortaa;-inkscape-font-specification:'Comfortaa, Bold';text-align:start;writing-mode:lr-tb;text-anchor:start;stroke:#000000;stroke-width:0.93723375;stroke-miterlimit:4;stroke-dasharray:none;stroke-opacity:1" id="path4239"/>
        <path d="m 255.41459,256.19251 1.0623,0 0,-8.49836 q 0,-0.97188 0.67806,-1.64994 0.70066,-0.70067 1.69515,-0.70067 0.97189,0 1.64995,0.70067 0.70066,0.67806 0.70066,1.64994 l 0,8.49836 2.82525,0 q 0.97189,0 1.64995,0.70067 0.67806,0.67806 0.67806,1.64994 0,0.99449 -0.67806,1.69515 -0.67806,0.67806 -1.64995,0.67806 l -2.82525,0 0,11.36882 q 0,4.4978 4.5204,4.4978 0.97189,0 1.64995,0.70067 0.67806,0.67806 0.67806,1.64994 0,0.99449 -0.67806,1.69515 -0.67806,0.67806 -1.64995,0.67806 -9.24422,0 -9.24422,-9.22162 l 0,-11.36882 -1.0623,0 q -0.94928,0 -1.64994,-0.67806 -0.67806,-0.70066 -0.67806,-1.69515 0,-0.97188 0.67806,-1.64994 0.70066,-0.70067 1.64994,-0.70067 z" style="font-style:normal;font-variant:normal;font-weight:bold;font-stretch:normal;font-size:46.28893661px;line-height:100%;font-family:Comfortaa;-inkscape-font-specification:'Comfortaa, Bold';text-align:start;writing-mode:lr-tb;text-anchor:start;stroke:#000000;stroke-width:0.93723375;stroke-miterlimit:4;stroke-dasharray:none;stroke-opacity:1" id="path4241"/>
        <path d="m 277.67759,251.69471 q 0,1.1527 -0.81368,1.96638 -0.81367,0.81367 -1.96637,0.81367 -1.15271,0 -1.96638,-0.81367 -0.81367,-0.81368 -0.81367,-1.96638 0,-1.1527 0.81367,-1.96637 0.81367,-0.81368 1.96638,-0.81368 1.1527,0 1.96637,0.81368 0.81368,0.81367 0.81368,1.96637 z m -5.13066,27.43885 0,-20.56784 q 0,-0.99448 0.67806,-1.67254 0.70066,-0.70067 1.67255,-0.70067 0.97188,0 1.64995,0.70067 0.70066,0.67806 0.72326,1.67254 l 0,20.56784 q -0.0226,0.99449 -0.72326,1.69515 -0.67807,0.67806 -1.64995,0.67806 -0.97189,0 -1.67255,-0.67806 -0.67806,-0.70066 -0.67806,-1.69515 z" style="font-style:normal;font-variant:normal;font-weight:bold;font-stretch:normal;font-size:46.28893661px;line-height:100%;font-family:Comfortaa;-inkscape-font-specification:'Comfortaa, Bold';text-align:start;writing-mode:lr-tb;text-anchor:start;stroke:#000000;stroke-width:0.93723375;stroke-miterlimit:4;stroke-dasharray:none;stroke-opacity:1" id="path4243"/>
        <path d="m 282.08498,279.13356 0,-31.4168 q 0,-0.99449 0.67806,-1.67255 0.70066,-0.70067 1.69515,-0.70067 0.97189,0 1.64995,0.70067 0.70066,0.67806 0.70066,1.67255 l 0,17.62957 13.51601,-8.79218 q 0.56505,-0.36164 1.26571,-0.36164 0.49725,0 0.92668,0.18082 0.42944,0.18082 0.74587,0.51985 0.31643,0.31642 0.49725,0.74586 0.20341,0.42944 0.20341,0.90408 0,1.26572 -0.90408,1.87597 l -9.47024,6.14775 9.71887,10.93938 q 0.65545,0.72326 0.65545,1.64994 0,0.47465 -0.20341,0.90409 -0.18082,0.42943 -0.49725,0.76846 -0.31643,0.31643 -0.74587,0.49725 -0.42943,0.18081 -0.92668,0.18081 -0.94928,0 -1.58214,-0.61025 l -10.44213,-11.73045 -2.75745,1.80816 0,8.15933 q 0,0.97189 -0.70066,1.67255 -0.67806,0.70066 -1.64995,0.70066 -0.99449,0 -1.69515,-0.70066 -0.67806,-0.70066 -0.67806,-1.67255 z" style="font-style:normal;font-variant:normal;font-weight:bold;font-stretch:normal;font-size:46.28893661px;line-height:100%;font-family:Comfortaa;-inkscape-font-specification:'Comfortaa, Bold';text-align:start;writing-mode:lr-tb;text-anchor:start;stroke:#000000;stroke-width:0.93723375;stroke-miterlimit:4;stroke-dasharray:none;stroke-opacity:1" id="path4245"/>
      </g>
      <g transform="scale(0.97689163,1.023655)" style="font-style:normal;font-variant:normal;font-weight:bold;font-stretch:normal;font-size:39.67622757px;line-height:100%;font-family:Purisa;-inkscape-font-specification:'Purisa, Bold';text-align:start;letter-spacing:0px;word-spacing:0px;writing-mode:lr-tb;text-anchor:start;display:inline;fill:#000000;fill-opacity:1;stroke:#000000;stroke-width:0.93723375;stroke-linecap:butt;stroke-linejoin:miter;stroke-miterlimit:4;stroke-dasharray:none;stroke-opacity:1" id="text4415-6">
        <path d="m 45.622657,176.63716 0,-31.3716 q 0,-0.49725 0.180816,-0.92669 0.180816,-0.45204 0.497244,-0.76846 0.339031,-0.33904 0.768469,-0.51985 0.429438,-0.18082 0.949285,-0.18082 1.401325,0 2.12459,1.28832 l 13.561212,27.09982 13.561211,-27.09982 q 0.813673,-1.28832 2.12459,-1.28832 0.497245,0 0.926683,0.18082 0.452041,0.18081 0.768469,0.51985 0.33903,0.31642 0.519846,0.76846 0.180816,0.42944 0.180816,0.92669 l 0,31.3716 q 0,0.99449 -0.700662,1.69515 -0.700663,0.70066 -1.695152,0.70066 -0.994489,0 -1.695151,-0.70066 -0.700663,-0.70066 -0.700663,-1.69515 l 0,-21.20069 -11.210602,22.3986 q -0.700662,1.1979 -2.079385,1.1979 -1.491734,0 -2.192396,-1.44653 l -11.097592,-22.14997 0,21.20069 q 0,0.99449 -0.700663,1.69515 -0.700662,0.70066 -1.695151,0.70066 -0.994489,0 -1.695152,-0.70066 -0.700662,-0.70066 -0.700662,-1.69515 z" style="font-style:normal;font-variant:normal;font-weight:bold;font-stretch:normal;font-size:46.28893661px;line-height:100%;font-family:Comfortaa;-inkscape-font-specification:'Comfortaa, Bold';text-align:start;writing-mode:lr-tb;text-anchor:start;stroke:#000000;stroke-width:0.93723375;stroke-miterlimit:4;stroke-dasharray:none;stroke-opacity:1" id="path4248"/>
        <path d="m 98.059344,158.44253 q -1.672549,0 -3.119079,0.63286 -1.446529,0.63286 -2.508824,1.71775 -1.062295,1.0623 -1.695151,2.50883 -0.610255,1.44653 -0.610255,3.07387 0,1.62735 0.610255,3.07388 0.632856,1.44653 1.695151,2.53142 1.062295,1.0623 2.508824,1.69516 1.44653,0.63285 3.119079,0.63285 1.649948,0 3.096476,-0.63285 1.44653,-0.63286 2.50882,-1.71776 1.0849,-1.08489 1.69516,-2.50882 0.63285,-1.44653 0.63285,-3.07388 0,-1.62734 -0.63285,-3.05127 -0.61026,-1.44653 -1.69516,-2.53143 -1.06229,-1.08489 -2.50882,-1.71775 -1.446528,-0.63286 -3.096476,-0.63286 z m 7.933306,18.23983 0,-0.45204 q -1.69515,1.35612 -3.68413,2.07939 -1.98897,0.72326 -4.249176,0.72326 -5.243669,0 -8.9504,-3.70673 -3.706731,-3.70673 -3.706731,-8.9504 0,-5.24367 3.706731,-8.9504 3.706731,-3.70673 8.9504,-3.70673 5.198466,0 8.950396,3.70673 3.70674,3.70673 3.70674,8.9504 l 0,10.30652 q 0,0.97189 -0.70067,1.67255 -0.67806,0.67806 -1.64994,0.67806 -0.99449,0 -1.69516,-0.67806 -0.67806,-0.70066 -0.67806,-1.67255 z" style="font-style:normal;font-variant:normal;font-weight:bold;font-stretch:normal;font-size:46.28893661px;line-height:100%;font-family:Comfortaa;-inkscape-font-specification:'Comfortaa, Bold';text-align:start;writing-mode:lr-tb;text-anchor:start;stroke:#000000;stroke-width:0.93723375;stroke-miterlimit:4;stroke-dasharray:none;stroke-opacity:1" id="path4250"/>
        <path d="m 114.55882,153.71871 1.06229,0 0,-8.49836 q 0,-0.97188 0.67806,-1.64994 0.70066,-0.70067 1.69515,-0.70067 0.97189,0 1.64995,0.70067 0.70066,0.67806 0.70066,1.64994 l 0,8.49836 2.82526,0 q 0.97188,0 1.64994,0.70066 0.67806,0.67807 0.67806,1.64995 0,0.99449 -0.67806,1.69515 -0.67806,0.67806 -1.64994,0.67806 l -2.82526,0 0,11.36882 q 0,4.4978 4.52041,4.4978 0.97188,0 1.64994,0.70066 0.67806,0.67807 0.67806,1.64995 0,0.99449 -0.67806,1.69515 -0.67806,0.67806 -1.64994,0.67806 -9.24423,0 -9.24423,-9.22162 l 0,-11.36882 -1.06229,0 q -0.94929,0 -1.64995,-0.67806 -0.67806,-0.70066 -0.67806,-1.69515 0,-0.97188 0.67806,-1.64995 0.70066,-0.70066 1.64995,-0.70066 z" style="font-style:normal;font-variant:normal;font-weight:bold;font-stretch:normal;font-size:46.28893661px;line-height:100%;font-family:Comfortaa;-inkscape-font-specification:'Comfortaa, Bold';text-align:start;writing-mode:lr-tb;text-anchor:start;stroke:#000000;stroke-width:0.93723375;stroke-miterlimit:4;stroke-dasharray:none;stroke-opacity:1" id="path4252"/>
        <path d="m 135.12666,176.65976 q 0,0.99449 -0.70067,1.69515 -0.67806,0.67806 -1.67255,0.67806 -0.97188,0 -1.67254,-0.67806 -0.67807,-0.70066 -0.67807,-1.69515 l 0,-31.41681 q 0,-0.99448 0.67807,-1.67254 0.70066,-0.70067 1.67254,-0.70067 0.97189,0 1.64995,0.70067 0.70066,0.67806 0.72327,1.67254 l 0,10.84897 q 3.00607,-2.328 7.07443,-2.328 2.37321,0 4.4978,0.92668 2.14719,0.92668 3.77454,2.53143 1.62734,1.58214 2.57663,3.75193 0.94928,2.14719 0.94928,4.58821 l 0,11.09759 q -0.0226,0.99449 -0.72326,1.69515 -0.67806,0.67806 -1.64995,0.67806 -0.97189,0 -1.67255,-0.67806 -0.67806,-0.70066 -0.67806,-1.69515 l 0,-11.09759 q 0,-1.44653 -0.56505,-2.73484 -0.56505,-1.28832 -1.53694,-2.2376 -0.94928,-0.97189 -2.2376,-1.53694 -1.28831,-0.56505 -2.73484,-0.56505 -1.46913,0 -2.75745,0.56505 -1.26571,0.54245 -2.2376,1.51433 -0.97188,0.97189 -1.53693,2.26021 -0.54245,1.28831 -0.54245,2.73484 l 0,11.09759 z" style="font-style:normal;font-variant:normal;font-weight:bold;font-stretch:normal;font-size:46.28893661px;line-height:100%;font-family:Comfortaa;-inkscape-font-specification:'Comfortaa, Bold';text-align:start;writing-mode:lr-tb;text-anchor:start;stroke:#000000;stroke-width:0.93723375;stroke-miterlimit:4;stroke-dasharray:none;stroke-opacity:1" id="path4254"/>
        <path d="m 177.82187,164.02523 q -0.38423,-1.24311 -1.1527,-2.2602 -0.74587,-1.03969 -1.76296,-1.76296 -0.99449,-0.74586 -2.215,-1.1527 -1.19791,-0.40684 -2.48622,-0.40684 -1.28832,0 -2.50883,0.40684 -1.2205,0.40684 -2.23759,1.1527 -1.0171,0.72327 -1.76296,1.76296 -0.74587,1.01709 -1.1075,2.2602 l 15.23376,0 z m -1.01709,7.88811 q 1.01709,0 1.67255,0.67806 0.67806,0.65546 0.67806,1.67255 0,0.99449 -0.67806,1.69515 -3.50331,3.07387 -8.27234,3.07387 -5.24367,0 -8.9504,-3.70673 -3.70673,-3.70673 -3.70673,-8.9504 0,-5.24367 3.70673,-8.9504 3.70673,-3.70673 8.9504,-3.70673 5.19846,0 8.9504,3.70673 1.85336,1.83077 2.78005,4.09097 0.92668,2.2376 0.92668,4.85943 0,1.01709 -0.70066,1.69515 -0.67806,0.65546 -1.67255,0.65546 l -17.9008,0 q 0.38423,1.24311 1.1301,2.28281 0.74587,1.01709 1.74036,1.76295 1.01709,0.72327 2.21499,1.13011 1.22051,0.40683 2.53143,0.40683 1.49173,0 2.73484,-0.45204 1.24311,-0.45204 2.30541,-1.35612 0.67806,-0.56505 1.55954,-0.58765 z" style="font-style:normal;font-variant:normal;font-weight:bold;font-stretch:normal;font-size:46.28893661px;line-height:100%;font-family:Comfortaa;-inkscape-font-specification:'Comfortaa, Bold';text-align:start;writing-mode:lr-tb;text-anchor:start;stroke:#000000;stroke-width:0.93723375;stroke-miterlimit:4;stroke-dasharray:none;stroke-opacity:1" id="path4256"/>
        <path d="m 222.21224,176.65976 q 0,0.99449 -0.70066,1.69515 -0.67806,0.67806 -1.64995,0.67806 -0.99449,0 -1.67255,-0.67806 -0.67806,-0.70066 -0.67806,-1.69515 l 0,-12.86055 q 0,-1.08489 -0.42944,-2.05678 -0.40684,-0.97189 -1.1301,-1.69515 -0.72326,-0.74587 -1.71775,-1.17531 -0.97189,-0.42944 -2.10199,-0.42944 -1.1075,0 -2.07939,0.42944 -0.97188,0.42944 -1.71775,1.15271 -0.72327,0.72326 -1.1527,1.69515 -0.40684,0.97188 -0.40684,2.07938 l 0,12.86055 q 0,0.99449 -0.70066,1.69515 -0.67806,0.67806 -1.64995,0.67806 -0.99449,0 -1.69515,-0.67806 -0.67806,-0.70066 -0.67806,-1.69515 l 0,-12.86055 q 0,-1.1075 -0.42944,-2.07938 -0.42944,-0.97189 -1.1527,-1.69515 -0.72327,-0.72327 -1.69516,-1.15271 -0.97188,-0.42944 -2.07938,-0.42944 -1.1075,0 -2.07939,0.42944 -0.97188,0.40684 -1.71775,1.15271 -0.72327,0.72326 -1.1527,1.69515 -0.40684,0.97188 -0.40684,2.07938 l 0,12.86055 q 0,0.99449 -0.70066,1.69515 -0.67806,0.67806 -1.64995,0.67806 -0.99449,0 -1.69515,-0.67806 -0.67806,-0.70066 -0.67806,-1.69515 l 0,-20.59044 q 0,-0.97188 0.67806,-1.64995 0.70066,-0.70066 1.67255,-0.70066 0.79107,0 1.40132,0.45204 0.61026,0.42944 0.83628,1.15271 2.41841,-1.60475 5.49229,-1.60475 2.2602,0 4.24918,0.90408 1.98898,0.88148 3.48071,2.68964 3.14168,-3.59372 7.70729,-3.59372 2.05678,0 3.88755,0.81367 1.85336,0.79108 3.20948,2.1698 1.37873,1.35612 2.1698,3.20949 0.81367,1.83076 0.81367,3.88754 l 0,12.86055 z" style="font-style:normal;font-variant:normal;font-weight:bold;font-stretch:normal;font-size:46.28893661px;line-height:100%;font-family:Comfortaa;-inkscape-font-specification:'Comfortaa, Bold';text-align:start;writing-mode:lr-tb;text-anchor:start;stroke:#000000;stroke-width:0.93723375;stroke-miterlimit:4;stroke-dasharray:none;stroke-opacity:1" id="path4258"/>
        <path d="m 238.91513,158.44253 q -1.67255,0 -3.11908,0.63286 -1.44652,0.63286 -2.50882,1.71775 -1.06229,1.0623 -1.69515,2.50883 -0.61026,1.44653 -0.61026,3.07387 0,1.62735 0.61026,3.07388 0.63286,1.44653 1.69515,2.53142 1.0623,1.0623 2.50882,1.69516 1.44653,0.63285 3.11908,0.63285 1.64995,0 3.09648,-0.63285 1.44653,-0.63286 2.50882,-1.71776 1.0849,-1.08489 1.69516,-2.50882 0.63285,-1.44653 0.63285,-3.07388 0,-1.62734 -0.63285,-3.05127 -0.61026,-1.44653 -1.69516,-2.53143 -1.06229,-1.08489 -2.50882,-1.71775 -1.44653,-0.63286 -3.09648,-0.63286 z m 7.93331,18.23983 0,-0.45204 q -1.69515,1.35612 -3.68413,2.07939 -1.98897,0.72326 -4.24918,0.72326 -5.24367,0 -8.9504,-3.70673 -3.70673,-3.70673 -3.70673,-8.9504 0,-5.24367 3.70673,-8.9504 3.70673,-3.70673 8.9504,-3.70673 5.19847,0 8.9504,3.70673 3.70673,3.70673 3.70673,8.9504 l 0,10.30652 q 0,0.97189 -0.70066,1.67255 -0.67806,0.67806 -1.64995,0.67806 -0.99448,0 -1.69515,-0.67806 -0.67806,-0.70066 -0.67806,-1.67255 z" style="font-style:normal;font-variant:normal;font-weight:bold;font-stretch:normal;font-size:46.28893661px;line-height:100%;font-family:Comfortaa;-inkscape-font-specification:'Comfortaa, Bold';text-align:start;writing-mode:lr-tb;text-anchor:start;stroke:#000000;stroke-width:0.93723375;stroke-miterlimit:4;stroke-dasharray:none;stroke-opacity:1" id="path4260"/>
        <path d="m 255.4146,153.71871 1.0623,0 0,-8.49836 q 0,-0.97188 0.67806,-1.64994 0.70066,-0.70067 1.69515,-0.70067 0.97189,0 1.64995,0.70067 0.70066,0.67806 0.70066,1.64994 l 0,8.49836 2.82525,0 q 0.97189,0 1.64995,0.70066 0.67806,0.67807 0.67806,1.64995 0,0.99449 -0.67806,1.69515 -0.67806,0.67806 -1.64995,0.67806 l -2.82525,0 0,11.36882 q 0,4.4978 4.52041,4.4978 0.97188,0 1.64994,0.70066 0.67806,0.67807 0.67806,1.64995 0,0.99449 -0.67806,1.69515 -0.67806,0.67806 -1.64994,0.67806 -9.24423,0 -9.24423,-9.22162 l 0,-11.36882 -1.0623,0 q -0.94928,0 -1.64994,-0.67806 -0.67806,-0.70066 -0.67806,-1.69515 0,-0.97188 0.67806,-1.64995 0.70066,-0.70066 1.64994,-0.70066 z" style="font-style:normal;font-variant:normal;font-weight:bold;font-stretch:normal;font-size:46.28893661px;line-height:100%;font-family:Comfortaa;-inkscape-font-specification:'Comfortaa, Bold';text-align:start;writing-mode:lr-tb;text-anchor:start;stroke:#000000;stroke-width:0.93723375;stroke-miterlimit:4;stroke-dasharray:none;stroke-opacity:1" id="path4262"/>
        <path d="m 277.6776,149.22091 q 0,1.1527 -0.81368,1.96638 -0.81367,0.81367 -1.96637,0.81367 -1.1527,0 -1.96638,-0.81367 -0.81367,-0.81368 -0.81367,-1.96638 0,-1.1527 0.81367,-1.96638 0.81368,-0.81367 1.96638,-0.81367 1.1527,0 1.96637,0.81367 0.81368,0.81368 0.81368,1.96638 z m -5.13066,27.43885 0,-20.56784 q 0,-0.99448 0.67806,-1.67255 0.70066,-0.70066 1.67255,-0.70066 0.97189,0 1.64995,0.70066 0.70066,0.67807 0.72326,1.67255 l 0,20.56784 q -0.0226,0.99449 -0.72326,1.69515 -0.67806,0.67806 -1.64995,0.67806 -0.97189,0 -1.67255,-0.67806 -0.67806,-0.70066 -0.67806,-1.69515 z" style="font-style:normal;font-variant:normal;font-weight:bold;font-stretch:normal;font-size:46.28893661px;line-height:100%;font-family:Comfortaa;-inkscape-font-specification:'Comfortaa, Bold';text-align:start;writing-mode:lr-tb;text-anchor:start;stroke:#000000;stroke-width:0.93723375;stroke-miterlimit:4;stroke-dasharray:none;stroke-opacity:1" id="path4264"/>
        <path d="m 282.08499,176.65976 0,-31.41681 q 0,-0.99448 0.67806,-1.67254 0.70066,-0.70067 1.69515,-0.70067 0.97189,0 1.64995,0.70067 0.70066,0.67806 0.70066,1.67254 l 0,17.62958 13.51601,-8.79219 q 0.56505,-0.36163 1.26571,-0.36163 0.49725,0 0.92669,0.18082 0.42943,0.18081 0.74586,0.51984 0.31643,0.31643 0.49725,0.74587 0.20342,0.42944 0.20342,0.90408 0,1.26572 -0.90409,1.87597 l -9.47024,6.14775 9.71887,10.93938 q 0.65546,0.72326 0.65546,1.64994 0,0.47465 -0.20342,0.90408 -0.18082,0.42944 -0.49725,0.76847 -0.31643,0.31643 -0.74586,0.49725 -0.42944,0.18081 -0.92669,0.18081 -0.94928,0 -1.58214,-0.61025 l -10.44213,-11.73045 -2.75745,1.80816 0,8.15933 q 0,0.97189 -0.70066,1.67255 -0.67806,0.70066 -1.64995,0.70066 -0.99449,0 -1.69515,-0.70066 -0.67806,-0.70066 -0.67806,-1.67255 z" style="font-style:normal;font-variant:normal;font-weight:bold;font-stretch:normal;font-size:46.28893661px;line-height:100%;font-family:Comfortaa;-inkscape-font-specification:'Comfortaa, Bold';text-align:start;writing-mode:lr-tb;text-anchor:start;stroke:#000000;stroke-width:0.93723375;stroke-miterlimit:4;stroke-dasharray:none;stroke-opacity:1" id="path4266"/>
      </g>
      <g transform="scale(0.97689163,1.023655)" style="font-style:normal;font-variant:normal;font-weight:bold;font-stretch:normal;font-size:39.67622757px;line-height:100%;font-family:Purisa;-inkscape-font-specification:'Purisa, Bold';text-align:start;letter-spacing:0px;word-spacing:0px;writing-mode:lr-tb;text-anchor:start;display:inline;fill:#000000;fill-opacity:1;stroke:#000000;stroke-width:0.93723375;stroke-linecap:butt;stroke-linejoin:miter;stroke-miterlimit:4;stroke-dasharray:none;stroke-opacity:1" id="text4415-6-1">
        <path d="m 249.77378,228.97833 q -0.94444,0 -1.55308,-0.62963 -0.60864,-0.62962 -0.62963,-1.53209 -1.44814,1.13333 -3.06418,1.65802 -1.61605,0.5037 -3.50493,0.5037 -2.24567,0 -4.23949,-0.86049 -1.99383,-0.88148 -3.48394,-2.3716 -1.49012,-1.49012 -2.3716,-3.48394 -0.86049,-1.99382 -0.86049,-4.23949 l 0,-10.36787 q 0,-0.90247 0.62962,-1.53209 0.65062,-0.65062 1.57407,-0.65062 0.90247,0 1.5321,0.65062 0.65061,0.62962 0.65061,1.53209 l 0,10.36787 q 0,1.36419 0.50371,2.56049 0.52468,1.19629 1.40616,2.09876 0.90247,0.88147 2.09876,1.40616 1.1963,0.50371 2.56049,0.50371 1.3432,0 2.5395,-0.50371 1.19629,-0.52469 2.09876,-1.42715 0.90246,-0.90247 1.40616,-2.07777 0.52469,-1.1963 0.52469,-2.56049 l 0,-10.36787 q 0,-0.90247 0.62963,-1.53209 0.65062,-0.65062 1.57407,-0.65062 0.90247,0 1.5321,0.65062 0.65061,0.62962 0.65061,1.53209 l 0,19.14068 q 0,0.90247 -0.65061,1.55308 -0.62963,0.62963 -1.55309,0.62963 z" style="font-style:normal;font-variant:normal;font-weight:bold;font-stretch:normal;font-size:42.98258591px;line-height:100%;font-family:Comfortaa;-inkscape-font-specification:'Comfortaa, Bold';text-align:start;writing-mode:lr-tb;text-anchor:start;stroke:#000000;stroke-width:0.93723375;stroke-miterlimit:4;stroke-dasharray:none;stroke-opacity:1" id="path4269"/>
        <path d="m 259.63795,207.63395 q 2.79135,-2.16172 6.56912,-2.16172 2.20369,0 4.17653,0.86049 1.99382,0.86049 3.50493,2.35061 1.5111,1.46913 2.39258,3.48394 0.88148,1.99382 0.88148,4.26048 l 0,10.34689 q 0,0.92345 -0.65062,1.57406 -0.62962,0.62963 -1.53209,0.62963 -0.92345,0 -1.57407,-0.62963 -0.62963,-0.65061 -0.62963,-1.57406 l 0,-10.34689 q 0,-1.3432 -0.52469,-2.5395 -0.52469,-1.19629 -1.42715,-2.07777 -0.88148,-0.90246 -2.07777,-1.42715 -1.1963,-0.52469 -2.5395,-0.52469 -1.3642,0 -2.56049,0.52469 -1.1753,0.5037 -2.07777,1.40617 -0.90247,0.90246 -1.42716,2.09875 -0.5037,1.1963 -0.5037,2.5395 l 0,10.34689 q 0,0.92345 -0.65061,1.57406 -0.62963,0.62963 -1.5321,0.62963 -0.92345,0 -1.57407,-0.62963 -0.62963,-0.65061 -0.62963,-1.57406 l 0,-19.09871 q 0,-0.90247 0.62963,-1.55308 0.65062,-0.65062 1.57407,-0.65062 0.90247,0 1.5321,0.65062 0.65061,0.65061 0.65061,1.5111 z" style="font-style:normal;font-variant:normal;font-weight:bold;font-stretch:normal;font-size:42.98258591px;line-height:100%;font-family:Comfortaa;-inkscape-font-specification:'Comfortaa, Bold';text-align:start;writing-mode:lr-tb;text-anchor:start;stroke:#000000;stroke-width:0.93723375;stroke-miterlimit:4;stroke-dasharray:none;stroke-opacity:1" id="path4271"/>
        <path d="m 299.57734,217.22528 q 0,-1.5111 -0.58766,-2.83332 -0.56666,-1.34321 -1.57407,-2.35061 -0.98641,-1.00741 -2.32962,-1.59506 -1.3432,-0.58765 -2.8753,-0.58765 -1.55308,0 -2.89629,0.58765 -1.3432,0.58765 -2.32962,1.59506 -0.98642,0.98641 -1.57407,2.32962 -0.56666,1.34321 -0.56666,2.85431 0,1.51111 0.56666,2.85431 0.58765,1.34321 1.57407,2.35061 0.98642,0.98642 2.32962,1.57407 1.34321,0.58766 2.89629,0.58766 1.5321,0 2.8753,-0.58766 1.34321,-0.58765 2.32962,-1.59505 1.00741,-1.00741 1.57407,-2.32963 0.58766,-1.3432 0.58766,-2.85431 z m -7.36665,-11.75305 q 4.17653,0 7.36665,2.58147 l 0,-10.4728 q 0,-0.94444 0.60864,-1.55308 0.62962,-0.62963 1.57407,-0.62963 0.92345,0 1.55308,0.62963 0.65061,0.60864 0.65061,1.55308 l 0,19.64438 q 0,4.9111 -3.44196,8.31109 -3.48394,3.44196 -8.31109,3.44196 -4.86912,0 -8.31108,-3.44196 -3.44197,-3.44197 -3.44197,-8.31109 0,-4.86912 3.44197,-8.31108 3.44196,-3.44197 8.31108,-3.44197 z" style="font-style:normal;font-variant:normal;font-weight:bold;font-stretch:normal;font-size:42.98258591px;line-height:100%;font-family:Comfortaa;-inkscape-font-specification:'Comfortaa, Bold';text-align:start;writing-mode:lr-tb;text-anchor:start;stroke:#000000;stroke-width:0.93723375;stroke-miterlimit:4;stroke-dasharray:none;stroke-opacity:1" id="path4273"/>
      </g>
    </g>
    <rect style="color:#000000;clip-rule:nonzero;display:inline;overflow:visible;visibility:visible;opacity:1;isolation:auto;mix-blend-mode:normal;color-interpolation:sRGB;color-interpolation-filters:linearRGB;solid-color:#000000;solid-opacity:1;fill:#ffffff;fill-opacity:1;fill-rule:evenodd;stroke:none;stroke-width:0.23025352px;stroke-linecap:butt;stroke-linejoin:miter;stroke-miterlimit:4;stroke-dasharray:none;stroke-dashoffset:0;stroke-opacity:1;color-rendering:auto;image-rendering:auto;shape-rendering:auto;text-rendering:auto;enable-background:accumulate" id="rect5080" width="210.10406" height="337.75681" x="343.77829" y="-465.15912"/>
    <g style="display:inline;stroke-width:13.08767796;stroke-miterlimit:4;stroke-dasharray:none" id="g4780" transform="matrix(0.67147792,0,0,0.86944703,-175.5613,-304.05225)">
      <g id="g4891" transform="translate(3.7076332,-5.1906865)" style="stroke-width:13.08767796;stroke-miterlimit:4;stroke-dasharray:none">
        <path style="fill:#000000;fill-opacity:1;stroke:#000000;stroke-width:13.08767796;stroke-linecap:round;stroke-linejoin:round;stroke-miterlimit:4;stroke-dasharray:none;stroke-opacity:1" id="path4752" d="m 461.09252,1104.2818 c 1.48856,-4.5176 3.46513,-8.8628 5.3241,-13.2367 3.0679,-7.2003 5.53153,-14.6727 6.99019,-22.3716 0.32142,-1.6965 0.55347,-3.4087 0.83019,-5.1131 1.38531,-10.0528 1.50822,-20.218 1.51965,-30.348 -0.0647,-5.5018 0.0326,-11.0144 -0.42153,-16.5033 -0.19329,-2.3365 -0.45841,-4.291 -0.74568,-6.6044 -0.50594,-3.5752 -1.14213,-7.1293 -1.8942,-10.66049 -0.045,-0.1985 -0.0899,-0.3971 -0.1349,-0.5956 0,0 12.21387,-6.4009 12.21387,-6.4009 l 0,0 c 0.003,0.2181 0.006,0.4363 0.009,0.6544 0.12804,3.754 0.51934,7.48999 0.86727,11.22819 0.26619,3.5549 0.56137,7.1075 0.64115,10.6732 0.0662,2.9599 0.006,5.4084 -0.0395,8.3756 -0.0231,1.5122 -0.0479,3.0244 -0.0718,4.5365 -0.21319,10.2135 -0.41645,20.4485 -1.65538,30.6011 -0.64386,4.3334 -0.79437,5.8866 -1.7441,10.1488 -1.30768,5.8684 -3.15414,11.6151 -5.25893,17.2413 -1.48395,4.0073 -3.14046,8.0355 -3.9096,12.254 0,0 -12.51999,6.121 -12.51999,6.121 z"/>
        <path style="fill:#000000;fill-opacity:1;stroke:#000000;stroke-width:13.08767796;stroke-linecap:square;stroke-linejoin:round;stroke-miterlimit:4;stroke-dasharray:none;stroke-opacity:1" id="path4754" d="m 455.65871,1004.5624 c 6.74949,-6.10997 15.17001,-10.07127 23.00961,-14.49137 5.10289,-2.2948 10.50239,-3.7435 16.02404,-4.5826 3.76902,-0.5727 5.85334,-0.6932 9.6612,-1.0262 1.64617,-0.097 3.29156,-0.2096 4.93858,-0.2914 5.90869,-0.2933 12.55787,-0.7557 18.40659,0.1939 1.32749,0.2156 2.62218,0.599 3.9333,0.8985 4.29218,1.3442 8.26804,3.598 10.84171,7.3983 1.54437,2.2805 1.55476,3.0536 2.36417,5.7039 0.18444,1.1485 0.47337,2.28497 0.55333,3.44547 0.39807,5.7763 -1.46795,11.5101 -4.11621,16.5719 -0.7519,1.4371 -1.65758,2.7883 -2.48638,4.1825 -4.35717,6.3799 -9.922,11.8945 -16.25355,16.3184 -1.04865,0.7327 -2.15019,1.3866 -3.22529,2.0799 -7.20016,4.4475 -14.41667,8.836 -22.57969,11.1554 -2.10451,0.5979 -2.68642,0.6681 -4.76894,1.0732 -2.75804,0.496 -5.55481,0.6655 -8.3516,0.7127 -1.2354,0.013 -2.47077,0 -3.70589,-0.025 -1.2875,0.037 -2.5595,-0.01 -3.79081,-0.4075 -0.6492,-0.1581 -4.89703,-0.5387 -5.38773,-0.9747 l 15.49459,-7.415 0,0 c 0.39914,0.2609 0.80317,0.457 1.28047,0.5421 1.18485,0.1939 2.37713,0.148 3.57431,0.1572 1.19903,0 2.39621,0.047 3.59453,0.086 2.55721,0.041 5.11894,-0.068 7.64416,-0.5047 3.40591,-0.6614 6.67277,-1.5787 9.87487,-2.939 1.02483,-0.4353 3.94922,-2.0296 3.03688,-1.3913 -2.29388,1.6048 -4.80563,2.8732 -7.20847,4.3098 1.13677,-0.6855 2.30169,-1.3264 3.41026,-2.0566 6.47683,-4.2666 12.21975,-9.6609 16.69892,-15.997 0.81935,-1.3412 1.71707,-2.6376 2.45805,-4.0236 2.53571,-4.743 4.36044,-10.2038 3.87378,-15.6463 -0.0974,-1.0894 -0.39743,-2.1511 -0.59614,-3.2267 -0.76017,-2.2736 -0.91708,-3.2502 -2.22086,-5.24717 -2.32963,-3.5682 -5.98365,-5.7001 -9.95584,-6.9916 -1.2446,-0.286 -2.47365,-0.6513 -3.73386,-0.858 -5.68937,-0.9337 -12.24136,-0.5639 -17.98831,-0.2567 -1.6431,0.088 -3.28368,0.2179 -4.92554,0.3268 -3.97134,0.4008 -5.78764,0.5069 -9.7116,1.2084 -5.63127,1.0068 -11.12142,2.6821 -16.26111,5.2123 2.51401,-1.4947 5.02279,-2.9983 7.54202,-4.4842 0.85945,-0.5069 -1.72302,1.0079 -2.56249,1.5472 -2.00257,1.2865 -3.93251,2.7294 -5.61114,4.4219 l -12.77392,5.29117 z"/>
        <path style="fill:#000000;fill-opacity:1;stroke:#000000;stroke-width:13.08767796;stroke-linecap:square;stroke-linejoin:round;stroke-miterlimit:4;stroke-dasharray:none;stroke-opacity:1" id="path4756" d="m 488.93316,1046.3359 c 4.02014,0.4706 7.94453,1.3566 11.84323,2.4237 4.53085,1.4403 8.89251,3.4285 12.71597,6.2847 2.02574,1.5133 3.74989,3.1869 5.60426,4.8944 4.78491,4.6385 8.29146,10.3097 11.30935,16.199 2.37885,4.6831 4.17757,9.6324 6.67755,14.2524 1.44498,2.4386 3.30457,4.643 5.84677,5.9833 0.44362,0.2339 0.91665,0.4072 1.37496,0.6108 1.29421,0.5049 2.65842,0.7175 4.02313,0.9171 0,0 -11.06043,7.7081 -11.06043,7.7081 l 0,0 c -1.38207,-0.3517 -2.77207,-0.6933 -4.07255,-1.297 -1.2468,-0.6547 -1.71605,-0.8302 -2.83848,-1.7094 -1.96071,-1.5357 -3.40515,-3.5938 -4.5707,-5.7698 -2.27305,-4.7519 -3.93486,-9.7577 -6.25086,-14.4924 -2.94177,-5.7535 -6.23048,-11.3819 -10.86778,-15.9573 -2.02537,-1.8935 -3.19781,-3.1104 -5.46447,-4.7382 -3.83258,-2.7523 -8.20573,-4.5753 -12.75594,-5.7513 -4.23062,-0.9051 -8.49957,-1.6096 -12.84311,-1.5404 0,0 11.3291,-8.0177 11.3291,-8.0177 z"/>
      </g>
      <path d="m 376.10113,1068.5066 c 1.87531,1.4252 4.21084,2.0209 6.44596,2.6181 4.52882,1.1102 9.17414,1.6569 13.79488,2.2302 13.06866,0.5804 17.48985,1.9528 29.29133,0.6459 8.56363,-1.6652 13.50604,-5.2925 12.94757,-13.1737 -0.0631,-0.7309 -0.26517,-1.4431 -0.39776,-2.1647 -0.29574,-0.7058 -0.52087,-1.4455 -0.8872,-2.1174 -2.26229,-4.1494 -6.51944,-6.8267 -10.44123,-9.1812 -3.69308,-1.9999 -7.57324,-3.6712 -11.62617,-4.7941 -2.69562,-0.7469 -3.58578,-0.8308 -6.34591,-1.3097 -6.91123,-0.9723 -13.90483,-1.0002 -20.86974,-1.033 -3.18237,-0.064 -6.37529,-0.065 -9.5489,-0.348 -1.40423,-0.1254 -3.55315,-0.3654 -4.92848,-0.8438 -0.64922,-0.2259 -1.23382,-0.6064 -1.8507,-0.9096 -0.46857,-0.4381 -1.00835,-0.8107 -1.40569,-1.3143 -1.27257,-1.6129 -1.80936,-3.8547 -1.4388,-5.8727 0.37982,-2.0684 1.02224,-2.6547 2.16044,-4.3985 2.09987,-2.5036 4.76611,-4.384 7.58551,-5.9959 4.63903,-2.6522 9.26996,-5.3228 13.99374,-7.821 2.45674,-1.2992 5.80497,-2.2873 8.40189,-3.1532 9.91252,-2.8514 20.22235,-3.7156 30.46866,-4.3967 5.63095,-0.3601 11.2728,-0.4567 16.91225,-0.5849 l -10.3781,7.5398 0,0 c -5.34004,-0.1326 -10.68386,-0.1548 -16.02339,0.022 -10.19012,0.4764 -20.436,1.3873 -30.18613,4.596 -1.51671,0.559 -3.05449,1.0639 -4.55015,1.677 -1.37931,0.5653 -5.22394,2.798 -4.0688,1.8558 2.08946,-1.7043 4.61859,-2.7838 6.923,-4.1838 0.96635,-0.5871 -1.96241,1.1264 -2.90893,1.7451 -0.84051,0.5493 -1.671,1.1193 -2.44768,1.7557 -0.68329,0.5599 -1.28132,1.2165 -1.92199,1.8247 -1.06666,1.3615 -1.77413,1.9678 -2.24798,3.6444 -0.4712,1.6672 -0.104,3.4487 0.97919,4.7929 0.32041,0.3975 0.75156,0.6915 1.12734,1.0372 0.51683,0.255 1.00773,0.5713 1.55053,0.7651 1.33926,0.4781 3.15239,0.7145 4.5306,0.8645 3.07114,0.3345 6.16669,0.4051 9.25226,0.4646 7.03199,0.088 14.09846,0.1251 21.07071,1.1476 2.76298,0.5158 3.78231,0.6368 6.48287,1.4164 4.12163,1.1899 8.05118,2.9573 11.80369,5.0208 4.16676,2.5058 8.65993,5.3233 11.1613,9.6586 0.80967,1.5134 2.14059,5.1706 2.34387,6.7514 0.3385,2.7929 0.62726,7.4483 -2.22997,16.3643 -2.85162,6.1125 -5.69612,9.4041 -15.82834,13.3424 -4.4043,0.8426 -13.98857,2.7079 -28.79592,-2.4786 -7.1107,-2.0426 -15.82422,-3.6181 -21.94094,-4.2376 -4.78431,-0.5479 -15.70818,1.1634 -27.64717,5.1369 -15.17799,4.7227 -29.85147,14.0185 -32.10072,12.558 z" id="path4772" style="fill:#000000;fill-opacity:1;stroke:#000000;stroke-width:13.08767796;stroke-linecap:square;stroke-linejoin:round;stroke-miterlimit:4;stroke-dasharray:none;stroke-opacity:1"/>
      <path d="m 321.5507,997.99592 c -0.43121,4.16598 -0.4585,5.27418 -0.62868,9.45668 -0.30638,7.0454 -0.42695,14.0968 -0.77425,21.1405 -0.40008,6.7987 -0.72939,13.5887 -1.00086,20.3943 0.60698,10.2435 0.0237,9.4605 1.75754,16.732 2.22058,8.322 0.92391,8.267 0.92291,8.322 l -13.2372,4.1523 -3.89301,0.927 c -4.02476,-0.5648 -2.37557,-3.5555 -1.9912,-5.027 2.59575,-5.9713 4.25929,-9.5439 5.03673,-19.4659 0.45974,-6.8442 1.07746,-13.6768 1.46877,-20.5258 0.2976,-6.9828 0.50774,-13.9673 0.48669,-20.9575 -0.0147,-3.9798 -0.0677,-7.9785 -0.51616,-11.9364 l 12.98605,-2.59424 z" id="path4774" style="fill:#000000;fill-opacity:1;stroke:#000000;stroke-width:13.08767796;stroke-linecap:square;stroke-linejoin:round;stroke-miterlimit:4;stroke-dasharray:none;stroke-opacity:1"/>
      <path d="m 285.21656,1009.5578 c 5.63251,-4.2639 7.63118,-6.4487 17.35144,-10.33682 15.06117,-6.02618 24.46616,-4.11481 38.54049,-5.16167 8.81672,-0.48063 17.65173,-0.45227 26.4787,-0.4603 4.27137,-0.0148 8.54276,-0.0276 12.81414,-0.0498 2.40718,-0.0125 5.15499,0.0442 7.55922,-0.26586 1.11155,-0.14332 2.19874,-0.43557 3.2981,-0.65339 0.97151,-0.34262 1.97156,-0.61306 2.9145,-1.02783 0.86405,-0.38009 3.31521,-1.80727 2.48974,-1.34932 -3.22755,1.79051 -6.36426,3.75925 -9.69618,5.34715 -0.6988,0.33305 1.18872,-0.99595 1.72907,-1.55022 1.209,-1.24009 1.55733,-1.90319 2.4961,-3.31803 0.28039,-0.5486 0.5608,-1.09717 0.84118,-1.64579 l 12.91272,-5.85855 0,0 c -0.28251,0.60761 -0.565,1.21521 -0.84754,1.82285 -0.95152,1.56356 -1.30039,2.27534 -2.51677,3.6893 -4.1909,4.87157 -9.48846,6.56035 -15.65711,10.08881 -0.79315,0.45366 -1.64797,0.79909 -2.51064,1.10022 -0.95043,0.33165 -1.94267,0.52875 -2.91402,0.79315 -1.09195,0.1475 -2.17761,0.354 -3.27594,0.4424 -2.19564,0.1768 -5.22723,0.09 -7.40562,0.072 -4.21122,-0.036 -8.42252,-0.065 -12.63391,-0.075 -8.85712,0.024 -17.72479,0.017 -26.56426,0.6524 -8.00983,0.7258 -25.84179,5.8758 -33.49446,8.4618 -14.97084,4.4583 -28.17756,21.0063 -35.02023,26.1802 5.77782,-9.8292 16.0789,-21.6134 23.11128,-26.8975 z" id="path4776" style="fill:#000000;fill-opacity:1;stroke:#000000;stroke-width:13.08767796;stroke-linecap:square;stroke-linejoin:round;stroke-miterlimit:4;stroke-dasharray:none;stroke-opacity:1"/>
      <path d="m 319.79299,1035.0847 c 2.68859,-0.1783 5.37915,-0.2902 8.07347,-0.3396 4.43577,-0.039 8.87273,-0.064 13.30698,0.07 5.06148,0.2166 10.07189,0.9874 15.05652,1.8495 2.9562,0.5614 1.50727,0.2952 4.34634,0.8007 0,0 -10.69978,7.4632 -10.69978,7.4632 l 0,0 c -2.73583,-0.5818 -1.33858,-0.2886 -4.19202,-0.8787 -4.9314,-0.8786 -9.90317,-1.6062 -14.92055,-1.7064 -4.50912,-0.06 -9.02036,0.023 -13.52697,0.1818 -2.81948,0.1457 -5.75225,0.1748 -8.44375,1.1051 0,0 10.99976,-8.5456 10.99976,-8.5456 z" id="path4778" style="fill:#000000;fill-opacity:1;stroke:#000000;stroke-width:13.08767796;stroke-linecap:square;stroke-linejoin:round;stroke-miterlimit:4;stroke-dasharray:none;stroke-opacity:1"/>
    </g>
    <g transform="scale(1.0415779,0.96008181)" style="font-style:normal;font-variant:normal;font-weight:bold;font-stretch:normal;font-size:68.63615417px;line-height:100%;font-family:Purisa;-inkscape-font-specification:'Purisa, Bold';text-align:start;letter-spacing:0px;word-spacing:0px;writing-mode:lr-tb;text-anchor:start;display:inline;fill:#000000;fill-opacity:1;stroke:#000000;stroke-width:3.17693591;stroke-linecap:butt;stroke-linejoin:miter;stroke-miterlimit:4;stroke-dasharray:none;stroke-opacity:1" id="text4415-6-48">
      <path d="m 172.23146,173.66714 0,-54.26994 q 0,-0.86018 0.31279,-1.60307 0.3128,-0.78199 0.86019,-1.32938 0.58649,-0.58649 1.32938,-0.89929 0.74288,-0.31279 1.64217,-0.31279 l 36.16693,0 q 1.72037,0 2.93245,1.21208 1.21208,1.21208 1.21208,2.93245 0,1.72037 -1.21208,2.93246 -1.21208,1.21208 -2.93245,1.21208 l -32.0224,0 0,18.8459 22.99044,0 q 1.72037,0 2.93245,1.21208 1.21208,1.21208 1.21208,2.93245 0,1.72037 -1.21208,2.93246 -1.21208,1.21208 -2.93245,1.21208 l -22.99044,0 0,22.99043 q 0,1.72037 -1.21208,2.93246 -1.21208,1.21208 -2.93245,1.21208 -1.72037,0 -2.93245,-1.21208 -1.21208,-1.21209 -1.21208,-2.93246 z" style="font-style:normal;font-variant:normal;font-weight:bold;font-stretch:normal;font-size:80.07553101px;line-height:100%;font-family:Comfortaa;-inkscape-font-specification:'Comfortaa, Bold';text-align:start;letter-spacing:3.09045124px;writing-mode:lr-tb;text-anchor:start;stroke:#000000;stroke-width:3.17693591;stroke-miterlimit:4;stroke-dasharray:none;stroke-opacity:1" id="path4219"/>
      <path d="m 222.20206,169.13161 q -0.82108,-1.05568 -0.82108,-2.50236 0,-0.86018 0.31279,-1.60307 0.3128,-0.78199 0.86019,-1.32938 0.58649,-0.58649 1.32938,-0.89929 0.74288,-0.31279 1.64217,-0.31279 2.30686,0 3.47984,1.91587 1.64218,2.54146 4.10544,3.83174 2.46326,1.29028 5.31752,1.29028 2.22866,0 4.18363,-0.86019 1.99407,-0.89928 3.44074,-2.38506 1.48578,-1.48578 2.34597,-3.47985 0.86018,-2.03316 0.86018,-4.30093 0,-2.15046 -0.82108,-4.02723 -0.78199,-1.91587 -2.15047,-3.32345 -1.36848,-1.44668 -3.20615,-2.34596 -1.79857,-0.89929 -3.83174,-1.09479 -3.12795,-0.27369 -5.82581,-1.64217 -2.69785,-1.36848 -4.73102,-3.51895 -2.03317,-2.18956 -3.20615,-4.96562 -1.13388,-2.81515 -1.13388,-5.9431 0,-3.83174 1.44668,-6.92059 1.44667,-3.12795 4.26183,-5.55211 l -0.0391,0 q 4.49643,-3.90994 10.55683,-3.90994 1.95497,0 3.90994,0.50829 1.95497,0.46919 3.75354,1.48578 1.83767,0.97748 3.40165,2.46326 1.60307,1.48577 2.85425,3.47984 0.58649,1.01659 0.58649,2.22867 0,0.89928 -0.31279,1.64217 -0.3128,0.74289 -0.89929,1.32938 -0.54739,0.54739 -1.32938,0.86019 -0.74289,0.31279 -1.60307,0.31279 -0.78199,0 -1.40758,-0.2346 -0.58649,-0.23459 -1.09478,-0.66469 -0.4692,-0.43009 -0.93839,-0.97748 -0.43009,-0.58649 -0.93838,-1.32938 -0.93839,-1.36848 -2.58056,-2.03317 -1.60308,-0.70379 -3.47985,-0.70379 -1.48577,0 -2.89335,0.62559 -1.40758,0.5865 -2.50236,1.64218 -1.09478,1.05568 -1.79857,2.50236 -0.66469,1.44668 -0.66469,3.12795 0,1.52488 0.54739,2.89335 0.58649,1.36848 1.56397,2.46326 0.97749,1.05569 2.26777,1.75948 1.32938,0.66469 2.85425,0.78198 3.63624,0.2737 6.84239,1.87677 3.20615,1.60308 5.59122,4.18364 2.42416,2.54146 3.83173,5.86491 1.40758,3.32344 1.40758,6.99878 0,9.14926 -6.76419,14.85777 l 0.0391,0 q -5.43481,4.61373 -12.35541,4.61373 -2.30686,0 -4.61372,-0.5474 -2.30687,-0.58649 -4.45733,-1.68127 -2.11137,-1.09478 -3.98814,-2.73696 -1.83767,-1.64217 -3.20615,-3.71444 z" style="font-style:normal;font-variant:normal;font-weight:bold;font-stretch:normal;font-size:80.07553101px;line-height:100%;font-family:Comfortaa;-inkscape-font-specification:'Comfortaa, Bold';text-align:start;letter-spacing:3.09045124px;writing-mode:lr-tb;text-anchor:start;stroke:#000000;stroke-width:3.17693591;stroke-miterlimit:4;stroke-dasharray:none;stroke-opacity:1" id="path4221"/>
      <path d="m 274.24494,123.54174 0,21.85655 10.94782,0 q 2.26777,0 4.26184,-0.86019 1.99406,-0.86018 3.44074,-2.34596 1.48578,-1.52488 2.34596,-3.47984 0.86019,-1.99407 0.86019,-4.22274 0,-2.26776 -0.86019,-4.26183 -0.86018,-1.99407 -2.34596,-3.47984 -1.48578,-1.48578 -3.47984,-2.34597 -1.99407,-0.86018 -4.22274,-0.86018 l -10.94782,0 z m -8.28907,50.1254 0,-54.26994 q 0,-0.86018 0.31279,-1.60307 0.3128,-0.78199 0.86019,-1.32938 0.58649,-0.58649 1.32938,-0.89929 0.74289,-0.31279 1.64217,-0.31279 l 15.09236,0 q 3.94904,0 7.42889,1.52487 3.51894,1.52488 6.0995,4.14454 2.61966,2.61966 4.14453,6.1386 1.52488,3.47985 1.52488,7.42888 0,2.58056 -0.66469,5.04382 -0.62559,2.42416 -1.91587,4.61373 -1.25118,2.15047 -3.16705,4.02724 -1.87677,1.83767 -4.37913,3.24524 l 12.4727,19.97979 q 0.66469,1.09478 0.66469,2.26776 0,0.89929 -0.31279,1.64218 -0.3128,0.74288 -0.89929,1.32937 -0.54739,0.5474 -1.32938,0.86019 -0.74289,0.3128 -1.60307,0.3128 -2.18957,0 -3.55805,-2.03317 l -13.80208,-22.09115 -11.65161,0 0,19.97978 q 0,1.72037 -1.21208,2.93246 -1.21208,1.21208 -2.93246,1.21208 -1.72037,0 -2.93245,-1.21208 -1.21208,-1.21209 -1.21208,-2.93246 z" style="font-style:normal;font-variant:normal;font-weight:bold;font-stretch:normal;font-size:80.07553101px;line-height:100%;font-family:Comfortaa;-inkscape-font-specification:'Comfortaa, Bold';text-align:start;letter-spacing:3.09045124px;writing-mode:lr-tb;text-anchor:start;stroke:#000000;stroke-width:3.17693591;stroke-miterlimit:4;stroke-dasharray:none;stroke-opacity:1" id="path4223"/>
    </g>
    <g transform="matrix(-1.3048625,0,0,1.3048626,664.66989,12.564805)" style="display:inline;fill:#000000;fill-opacity:1;stroke:#000000;stroke-width:4.57090187;stroke-linecap:butt;stroke-linejoin:bevel;stroke-miterlimit:4;stroke-dasharray:none;stroke-opacity:1" id="layer4-9">
      <path id="path4190-3-7" d="m 126.33168,149.97889 c 0,0 0.32788,-14.82841 2.21792,-21.7026 0,0 2.86691,-10.92575 6.49266,-15.87073 5.83573,-7.95907 15.36904,-14.33859 20.0856,-21.69003 2.6324,-4.10298 7.34411,-12.29538 8.59508,-16.82713 1.55488,-5.6327 -11.51721,-7.80314 -12.04364,-13.96306 -0.11853,-1.38688 2.13784,-3.56973 2.13784,-3.56973 1.36847,-2.04052 -2.4998,-5.56203 -0.87225,-7.05229 3.7111,-3.398 2.76149,-6.10242 5.32182,-8.00332 4.71714,-3.50219 8.72929,2.56121 10.51252,-0.73329 10.18705,-18.82052 36.4716,-14.79195 48.15531,3.10756 2.92788,4.48553 3.93057,10.72148 3.1116,16.14006 -0.78701,5.20708 -5.68863,8.63779 -7.43381,13.89062 -1.08522,3.26638 1.40976,6.43444 1.37328,10.34895 -2.06216,0.49315 -2.99252,0.50752 -5.01658,1.54645 -1.18607,0.60879 -1.12899,1.66194 -1.89817,3.05855 -1.69211,-1.04492 -3.80606,-1.07784 -5.28775,-0.92788 0.79895,1.13803 2.73738,3.54143 2.23713,4.12388 -2.35711,0.32347 -2.91417,0.39833 -4.20308,0.79041 0.27799,1.74054 -0.23862,4.91484 -2.06765,5.80779 -4.40707,2.15159 -11.24159,-5.5123 -13.89728,-4.77682 -1.03684,0.28715 -3.44618,7.01055 -2.54218,15.98003 0.10649,1.05668 4.67733,2.36356 5.11826,4.05514 0.38789,1.48808 0.86566,8.42788 2.64387,8.96942 3.21731,0.97984 4.70159,0.0686 5.59281,-1.68391 1.76309,-3.46686 -1.99325,-10.33419 0.74571,-14.15864 6.57516,-9.18099 20.16659,-2.60715 20.43917,0.61858 0.36829,4.3583 4.06891,5.00502 6.80343,8.54283 -6.74432,2.74532 -15.28096,-0.0376 -19.17399,-1.05256 -0.81469,8.99058 4.86708,10.22387 9.11657,12.57926 13.96847,7.74242 16.03009,14.79444 17.49023,22.29629" style="display:inline;fill:#000000;fill-opacity:1;fill-rule:evenodd;stroke:#000000;stroke-width:4.57090187;stroke-linecap:butt;stroke-linejoin:bevel;stroke-miterlimit:4;stroke-dasharray:none;stroke-opacity:1"/>
    </g>
  </g>
  <g id="layer1" transform="translate(265.37257,89.977395)" style="display:inline">
    <rect transform="matrix(0.36612682,0,0,0.35226796,6.6586753,-1.2411606)" style="opacity:0;fill:none;fill-rule:evenodd;stroke:none;stroke-width:2.66850615;stroke-miterlimit:4;stroke-dasharray:none;stroke-opacity:1;filter:url(#filter1449)" id="rect272" width="948.922" height="555.93549" x="49.078003" y="184.0528"/>
    <rect transform="matrix(0.36612682,0,0,0.35226796,6.6586753,-1.2411606)" style="opacity:0;fill:none;fill-rule:evenodd;stroke:none;stroke-width:2.66850615;stroke-miterlimit:4;stroke-dasharray:none;stroke-opacity:1;filter:url(#filter1457)" id="rect285" width="976.88599" height="488.44299" x="51.415054" y="226.11966"/>
    <path style="color:#000000;clip-rule:nonzero;display:inline;overflow:visible;visibility:visible;opacity:1;isolation:auto;mix-blend-mode:normal;color-interpolation:sRGB;color-interpolation-filters:linearRGB;solid-color:#000000;solid-opacity:1;fill:none;fill-opacity:0.11499999;fill-rule:evenodd;stroke:#000000;stroke-width:2;stroke-linecap:butt;stroke-linejoin:miter;stroke-miterlimit:4;stroke-dasharray:none;stroke-dashoffset:0;stroke-opacity:1;color-rendering:auto;image-rendering:auto;shape-rendering:auto;text-rendering:auto;enable-background:accumulate" d="m 75.12748,170.10524 78.99992,0 0,78.99992 -78.99992,0 z" id="rect4233"/>
    <path style="color:#000000;clip-rule:nonzero;display:inline;overflow:visible;visibility:visible;opacity:1;isolation:auto;mix-blend-mode:normal;color-interpolation:sRGB;color-interpolation-filters:linearRGB;solid-color:#000000;solid-opacity:1;fill:none;fill-opacity:0.11499999;fill-rule:evenodd;stroke:#000000;stroke-width:2;stroke-linecap:butt;stroke-linejoin:miter;stroke-miterlimit:4;stroke-dasharray:none;stroke-dashoffset:0;stroke-opacity:1;color-rendering:auto;image-rendering:auto;shape-rendering:auto;text-rendering:auto;enable-background:accumulate" d="m 75.127563,119.87919 48.999747,0 0,48.99974 -48.999747,0 z" id="rect4233-2"/>
    <path style="color:#000000;clip-rule:nonzero;display:inline;overflow:visible;visibility:visible;opacity:1;isolation:auto;mix-blend-mode:normal;color-interpolation:sRGB;color-interpolation-filters:linearRGB;solid-color:#000000;solid-opacity:1;fill:none;fill-opacity:0.11499999;fill-rule:evenodd;stroke:#000000;stroke-width:1.38200009;stroke-linecap:butt;stroke-linejoin:miter;stroke-miterlimit:4;stroke-dasharray:none;stroke-dashoffset:0;stroke-opacity:1;color-rendering:auto;image-rendering:auto;shape-rendering:auto;text-rendering:auto;enable-background:accumulate" d="m 124.81853,160.69891 9.61781,0 0,8.48892 -9.61781,0 z" id="rect4233-2-9"/>
    <path style="color:#000000;clip-rule:nonzero;display:inline;overflow:visible;visibility:visible;opacity:1;isolation:auto;mix-blend-mode:normal;color-interpolation:sRGB;color-interpolation-filters:linearRGB;solid-color:#000000;solid-opacity:1;fill:none;fill-opacity:0.11499999;fill-rule:evenodd;stroke:#000000;stroke-width:2.10800719;stroke-linecap:butt;stroke-linejoin:miter;stroke-miterlimit:4;stroke-dasharray:none;stroke-dashoffset:0;stroke-opacity:1;color-rendering:auto;image-rendering:auto;shape-rendering:auto;text-rendering:auto;enable-background:accumulate" d="m 124.77848,149.75624 9.6979,0 0,11.01493 -9.6979,0 z" id="rect4233-2-9-1"/>
    <path style="color:#000000;clip-rule:nonzero;display:inline;overflow:visible;visibility:visible;opacity:1;isolation:auto;mix-blend-mode:normal;color-interpolation:sRGB;color-interpolation-filters:linearRGB;solid-color:#000000;solid-opacity:1;fill:none;fill-opacity:0.11499999;fill-rule:evenodd;stroke:#000000;stroke-width:2;stroke-linecap:butt;stroke-linejoin:miter;stroke-miterlimit:4;stroke-dasharray:none;stroke-dashoffset:0;stroke-opacity:1;color-rendering:auto;image-rendering:auto;shape-rendering:auto;text-rendering:auto;enable-background:accumulate" d="m 135.1286,149.87904 18.99989,0 0,18.99989 -18.99989,0 z" id="rect4233-2-9-2"/>
    <path style="color:#000000;clip-rule:nonzero;display:inline;overflow:visible;visibility:visible;opacity:1;isolation:auto;mix-blend-mode:normal;color-interpolation:sRGB;color-interpolation-filters:linearRGB;solid-color:#000000;solid-opacity:1;fill:none;fill-opacity:0.11499999;fill-rule:evenodd;stroke:#000000;stroke-width:1.50000012;stroke-linecap:butt;stroke-linejoin:miter;stroke-miterlimit:4;stroke-dasharray:none;stroke-dashoffset:0;stroke-opacity:1;color-rendering:auto;image-rendering:auto;shape-rendering:auto;text-rendering:auto;enable-background:accumulate" d="m 125.13626,120.09639 28.99998,0 0,28.99998 -28.99998,0 z" id="rect4233-2-9-2-7"/>
    <path style="display:inline;fill:none;fill-opacity:1;stroke:#000000;stroke-width:4.00016403;stroke-linecap:round;stroke-linejoin:round;stroke-miterlimit:4;stroke-dasharray:none;stroke-opacity:1" d="m -7.7159615,-51.403389 a 7.999918,7.9999189 0 0 1 -7.9999175,7.999919 7.999918,7.9999189 0 0 1 -7.999918,-7.999919 7.999918,7.9999189 0 0 1 7.999918,-7.999919 7.999918,7.9999189 0 0 1 7.9999175,7.999919 z" id="ellipse5122-3"/>
    <path style="display:inline;fill:none;fill-opacity:1;stroke:#000000;stroke-width:4.00016403;stroke-linecap:round;stroke-linejoin:round;stroke-miterlimit:4;stroke-dasharray:none;stroke-opacity:1" d="m -41.172094,-34.55986 a 7.999918,7.9999189 0 0 1 -7.999918,7.999919 7.999918,7.9999189 0 0 1 -7.999918,-7.999919 7.999918,7.9999189 0 0 1 7.999918,-7.999919 7.999918,7.9999189 0 0 1 7.999918,7.999919 z" id="ellipse5122-3-58"/>
    <path style="display:inline;fill:none;fill-opacity:1;stroke:#000000;stroke-width:4.00016403;stroke-linecap:round;stroke-linejoin:round;stroke-miterlimit:4;stroke-dasharray:none;stroke-opacity:1" d="m -24.444021,-0.82518482 a 7.999918,7.9999189 0 0 1 -7.999918,7.99991892 7.999918,7.9999189 0 0 1 -7.999918,-7.99991892 7.999918,7.9999189 0 0 1 7.999918,-7.99991898 7.999918,7.9999189 0 0 1 7.999918,7.99991898 z" id="ellipse5122-3-9"/>
    <path style="display:inline;fill:none;fill-opacity:1;stroke:#000000;stroke-width:4.00016403;stroke-linecap:round;stroke-linejoin:round;stroke-miterlimit:4;stroke-dasharray:none;stroke-opacity:1" d="m -74.62821,-17.908207 a 7.999918,7.9999194 0 0 1 -7.999918,7.9999195 7.999918,7.9999194 0 0 1 -7.999918,-7.9999195 7.999918,7.9999194 0 0 1 7.999918,-7.999919 7.999918,7.9999194 0 0 1 7.999918,7.999919 z" id="ellipse5122-3-9-6"/>
    <path style="display:inline;fill:none;fill-opacity:1;stroke:#000000;stroke-width:4.00016403;stroke-linecap:round;stroke-linejoin:round;stroke-miterlimit:4;stroke-dasharray:none;stroke-opacity:1" d="m 82.627352,5.274919 a 7.999918,7.9999194 0 0 1 -7.999918,7.999919 7.999918,7.9999194 0 0 1 -7.999918,-7.999919 7.999918,7.9999194 0 0 1 7.999918,-7.9999194 7.999918,7.9999194 0 0 1 7.999918,7.9999194 z" id="ellipse5122-3-9-0"/>
    <path style="fill:none;fill-rule:evenodd;stroke:#000000;stroke-width:4.0590148;stroke-linecap:round;stroke-linejoin:round;stroke-miterlimit:4;stroke-dasharray:none;stroke-opacity:1" d="m -6.13783,-51.368515 45.148716,0.06289 35.43411,24.056485" id="path10545"/>
    <path style="display:inline;fill:none;fill-opacity:1;stroke:#000000;stroke-width:4.00016403;stroke-linecap:round;stroke-linejoin:round;stroke-miterlimit:4;stroke-dasharray:none;stroke-opacity:1" d="m 82.627352,-51.448357 a 7.999918,7.9999194 0 0 1 -7.999918,7.99992 7.999918,7.9999194 0 0 1 -7.999918,-7.99992 7.999918,7.9999194 0 0 1 7.999918,-7.999919 7.999918,7.9999194 0 0 1 7.999918,7.999919 z" id="ellipse5122-3-9-0-2"/>
    <path style="display:inline;fill:none;fill-rule:evenodd;stroke:#000000;stroke-width:4.0590148;stroke-linecap:round;stroke-linejoin:round;stroke-miterlimit:4;stroke-dasharray:none;stroke-opacity:1" d="m -40.777545,-34.655049 37.0128319,0.126011 42.7755991,0.05958 35.43411,24.056485" id="path10545-0"/>
    <path style="display:inline;fill:none;fill-rule:evenodd;stroke:#000000;stroke-width:4.0590148;stroke-linecap:round;stroke-linejoin:round;stroke-miterlimit:4;stroke-dasharray:none;stroke-opacity:1" d="m -73.134936,-17.818884 69.2474822,0.12584 42.8983398,0.05975 27.490324,18.6633883" id="path10545-2"/>
    <path style="display:inline;fill:none;fill-rule:evenodd;stroke:#000000;stroke-width:4.0590148;stroke-linecap:round;stroke-linejoin:round;stroke-miterlimit:4;stroke-dasharray:none;stroke-opacity:1" d="m -23.24909,-0.86000696 20.0978311,0.00416 42.1621449,0.0587298 35.43411,24.05648516" id="path10545-01"/>
  </g>
  <g id="layer3" style="display:inline" transform="translate(290.00002,49.582575)">
    <path style="fill:none;stroke:#000000;stroke-width:4;stroke-linecap:butt;stroke-linejoin:miter;stroke-miterlimit:4;stroke-dasharray:none;stroke-opacity:1" d="m -290.00002,289.49143 550,0" id="path1509"/>
    <path style="fill:none;stroke:#000000;stroke-width:4.29487371;stroke-linecap:butt;stroke-linejoin:miter;stroke-miterlimit:4;stroke-dasharray:none;stroke-opacity:1" d="m 49.999881,159.49999 199.840209,-0.001" id="path1483"/>
    <path style="display:inline;fill:none;stroke:#000000;stroke-width:3.91113544;stroke-linecap:round;stroke-linejoin:miter;stroke-miterlimit:4;stroke-dasharray:none;stroke-opacity:1" d="m 49.956155,63.97188 0.08766,222.53573" id="path1509-0"/>
    <path style="display:inline;fill:none;stroke:#000000;stroke-width:3.54866695;stroke-linecap:butt;stroke-linejoin:miter;stroke-miterlimit:4;stroke-dasharray:none;stroke-opacity:1" d="m 130.61833,160.27374 0,128.58889" id="path1509-0-9"/>
    <path style="display:inline;fill:none;stroke:#000000;stroke-width:3.88061285;stroke-linecap:round;stroke-linejoin:miter;stroke-miterlimit:4;stroke-dasharray:none;stroke-opacity:1" d="M 50.059372,13.459371 49.940644,29.52349" id="path1509-0-4"/>
    <path style="display:inline;fill:none;stroke:#000000;stroke-width:4.19967222;stroke-linecap:round;stroke-linejoin:miter;stroke-miterlimit:4;stroke-dasharray:none;stroke-opacity:1" d="m 49.999982,-40.272444 0,19.785031" id="path1509-0-4-5"/>
  </g>
  <g id="layer2" style="display:inline" transform="translate(290.00002,49.582575)">
    <g id="surface97" transform="matrix(0.50605191,0,0,0.42569668,-240.30479,-35.903735)" style="stroke-width:1.92907715;filter:url(#filter1429)">
      <path style="fill:none;stroke:#05bdd7;stroke-width:21.53991508;stroke-linecap:square;stroke-linejoin:round;stroke-miterlimit:10;stroke-dasharray:none;stroke-opacity:1" d="m 682.80087,565.12742 c 4.46043,0.0132 9.03912,0.23524 13.27209,-0.49739 11.27492,-1.95141 25.61465,-13.78071 24.82478,-36.29172 -0.84839,-24.17836 -19.86469,-57.62278 -52.40277,-57.62278 -53.81774,0 -82.58279,43.12683 -82.58279,107.22613 0,102.23035 59.74352,175.15999 146.0526,175.15999 140.43032,0 245.90845,-127.10869 245.90845,-293.44386 0,-268.70926 -178.33398,-481.020665 -405.19946,-481.020665 -359.67467,0 -656.025662,348.159405 -660.00472,770.713635" id="path67"/>
    </g>
  </g>
</svg>
